<svg version="1.2" xmlns="http://www.w3.org/2000/svg" viewBox="0 0 662 181" width="662" height="181">
	<title>arthetic logo 1</title>
	<style>
		.s0 { fill: #ffffff } 
	</style>
	<path id="ZUBNÍ LABORATOŘ ARTHETIC" class="s0" aria-label="ZUBNÍ LABORATOŘ
ARTHETIC"  d="m180.5 17h15.1v-0.8l-14.2 0.1 14.1-22.6v-0.7h-14.9v0.8h14l-14.1 22.5zm39.8-24v15.8c0 4.5-3.4 7.8-7.9 7.8-4.5 0-7.9-3.3-7.9-7.8v-15.8h-0.7v15.8c-0.1 4.9 3.7 8.5 8.6 8.5 4.9 0 8.6-3.6 8.6-8.5v-15.8zm11.5 24h8.3c4.1 0 6.6-2.5 6.6-6.2 0-3.3-2-5.8-4.6-6v-0.1c2.3-0.6 3.6-2.8 3.6-5.7 0-3.7-2.4-6-6.4-6h-7.5zm0.8-0.8v-11.1h7.5c3.4 0 5.8 2.4 5.8 5.7 0 3.2-2.3 5.4-5.8 5.4zm0-11.8v-10.7h6.7c3.5 0 5.7 1.9 5.7 5.3 0 2.9-1.6 5.4-4.9 5.4zm41.3-11.4h-0.8v22.5l-16.5-22.5h-0.7v24h0.7v-22.6h0.1l16.4 22.6h0.8zm10.7 0h-0.7v24h0.7zm-0.7-2.7h0.7l3.5-5h-0.9zm23 26.6h12.7v-0.8h-12v-23.2h-0.7zm20.1 0l2.9-8.1h10.8l2.9 8.1h0.8l-8.6-24h-1l-8.6 24zm3.2-8.9l5.1-14.2 5.1 14.2zm21.7 8.9h8.3c4.2 0 6.6-2.5 6.6-6.2 0-3.3-2-5.7-4.6-6 2.3-0.6 3.7-2.9 3.7-5.7 0-3.8-2.4-6.1-6.5-6.1h-7.5zm0.8-0.8v-11h7.5c3.4 0 5.9 2.3 5.9 5.6 0 3.3-2.3 5.4-5.9 5.4zm0-11.8v-10.7h6.8c3.5 0 5.7 2 5.7 5.4 0 2.8-1.6 5.3-4.9 5.3zm41.8 0.6c0-7.3-4.1-12.3-10-12.3-5.9 0-9.9 5-9.9 12.3 0 7.3 4 12.3 9.9 12.3 5.9 0 10-5 10-12.3zm-0.8 0c0 6.9-3.7 11.6-9.2 11.6-5.5 0-9.2-4.8-9.2-11.6 0-7 3.8-11.6 9.2-11.6 5.5 0 9.2 4.7 9.2 11.6zm10.2 12h0.8v-10.4h6.3c0.5 0 1 0 1.5-0.1l5.6 10.5h0.9l-5.8-10.7c2.8-0.8 4.7-3.2 4.7-6.5 0-4.1-2.9-6.8-6.9-6.8h-7.1zm0.8-11.1v-12.2h6.3c3.6 0 6.1 2.5 6.1 6.1 0 3.7-2.5 6.1-6.1 6.1zm20.3 11.1l3-8.1h10.7l2.9 8.1h0.8l-8.5-24h-1.1l-8.6 24zm3.2-8.9l5.1-14.2h0.1l5.1 14.2zm17-14.4h7.7v23.3h0.7v-23.3h7.8v-0.7h-16.2zm42.2 11.2c0-7.3-4-12.3-9.9-12.3-6 0-10 5-10 12.3 0 7.3 4 12.4 10 12.4 5.9 0 9.9-5 9.9-12.4zm-0.7 0c0 6.9-3.8 11.6-9.2 11.6-5.6 0-9.2-4.7-9.2-11.6 0-6.9 3.7-11.5 9.2-11.5 5.4 0 9.1 4.6 9.2 11.5zm9.2 12h0.7v-10.3h6.3c0.5 0 1-0.1 1.5-0.2l5.7 10.5h0.8l-5.7-10.6c2.8-0.8 4.6-3.2 4.6-6.5 0-4.1-2.8-6.9-6.9-6.9h-7zm0.7-11.1v-12.1h6.3c3.6 0 6.2 2.4 6.2 6.1 0 3.6-2.6 6-6.2 6zm2.1-19.8h-0.9l4.3 4.5h0.2l4.3-4.5h-0.9l-3.5 3.6zm-413.3 145.9l6.1-18.7h29.7l6.1 18.7h18.6l-28.3-82.1h-22.4l-28.4 82.1zm10.5-32.3l10.1-31.1h0.7l10.1 31.1zm59.3 32.3h17.4v-29.1h12.7l15.5 29.1h19.2l-17.4-31.9c9.3-4 14.5-12.2 14.5-23.4 0-16.3-10.8-26.8-29.5-26.8h-32.4zm17.4-43.1v-24.9h11.7c10 0 14.9 4.4 14.9 12.6 0 8.2-4.9 12.3-14.8 12.3zm53.5-24.8h25.2v67.9h17.1v-67.9h25.2v-14.3h-67.5zm84.8 67.8h2.6v-39.8h52.3v39.8h2.6v-82.1h-2.6v39.8h-52.3v-39.8h-2.6zm83 0h45v-2.6h-42.4v-37.2h38.8v-2.6h-38.8v-37.3h41.2v-2.5h-43.8zm60.1-79.6h26.5v79.6h2.5v-79.6h26.5v-2.6h-55.5zm77.5-2.6h-2.6v82.2h2.6zm87.3 25.7c-2.1-11.7-12.2-26.8-31.5-26.8-20.2 0-34 17-34 42.2 0 25.2 13.8 42.2 34 42.2 19.3 0 29.4-15.2 31.5-26.8h-2.8c-2 11.1-11.9 24.2-28.7 24.2-16.9 0-31.5-13.8-31.5-39.6 0-25.5 14.6-39.6 31.5-39.6 16.8 0 26.7 13.3 28.7 24.2z"/>
</svg>